<svg xmlns="http://www.w3.org/2000/svg" width="2600" height="1650" viewBox="0 0 2600 1650"><title>京张借景带｜封面</title><style>text{font-family:"Jingzhang Reading","Noto Sans SC","PingFang SC",sans-serif}</style><image href="overall-night.webp" x="0" y="0" width="2600" height="1650" preserveAspectRatio="xMidYMid slice"/><defs><linearGradient id="shade"><stop offset="0" stop-color="#05131f" stop-opacity=".98"/><stop offset=".55" stop-color="#05131f" stop-opacity=".7"/><stop offset="1" stop-color="#05131f" stop-opacity="0"/></linearGradient></defs><rect width="2600" height="1650" fill="url(#shade)"/><path d="M120 100 L120 170 L155 140 L195 140 L230 110 M155 140 L155 195" fill="none" stroke="#53d7d7" stroke-width="7"/><text x="275" y="151" font-size="27" fill="#b5e6e8" text-anchor="start">JING-ZHANG / BORROWED INTELLIGENCE</text><text x="120" y="455" font-size="122" fill="#fff" text-anchor="start">京张借景带</text><text x="126" y="535" font-size="41" fill="#c6f3ef" text-anchor="start">BORROWED INTELLIGENCE</text><text x="128" y="650" font-size="41" fill="#fff" text-anchor="start">百年京张 AI 创新带城市设计概念方案</text><text x="128" y="750" font-size="35" fill="#b5e6e8" text-anchor="start">记忆校准智能，福祉衡量未来</text><path d="M130 1020 L270 1020 L310 980 L480 980 L530 1030 L680 1030" stroke="#58dce0" stroke-width="4" fill="none"/><circle cx="130" cy="1020" r="11" fill="#efbd77"/><circle cx="380" cy="980" r="11" fill="#efbd77"/><circle cx="680" cy="1030" r="11" fill="#efbd77"/><text x="128" y="1110" font-size="27" fill="#c2d7da" text-anchor="start">一脉 · 两翼 · 三园 · 十二景</text><text x="128" y="1400" font-size="29" fill="#fff" text-anchor="start">李博 · 蒙宇婧  /  京张借景带设计团队</text><text x="128" y="1470" font-size="27" fill="#91c7cf" text-anchor="start">V1.4 / 2026-10-06</text><text x="128" y="1570" font-size="23" fill="#adbec9" text-anchor="start">截止后修订 · 概念设计</text></svg>