<svg xmlns="http://www.w3.org/2000/svg" width="2600" height="1650" viewBox="0 0 2600 1650"><title>众智园｜观察在外，验证在内</title><desc>空间原型 / 建筑、庭院与路径分别表达</desc><style>text{font-family:"Jingzhang Reading","Noto Sans SC","PingFang SC",sans-serif}</style><rect width="100%" height="100%" fill="#f6f3ec"/><text x="85" y="65" fill="#177a70" font-size="22" font-weight="600" text-anchor="start">B01F / BORROWED INTELLIGENCE</text><text x="85" y="135" fill="#18302f" font-size="55" font-weight="600" text-anchor="start">众智园｜观察在外，验证在内</text><text x="85" y="195" fill="#687772" font-size="26" font-weight="400" text-anchor="start">空间原型 / 建筑、庭院与路径分别表达</text><rect x="140" y="330" width="1590" height="995" rx="3" fill="#e9e9df" stroke="none"/><rect x="342" y="394" width="855" height="150" rx="1" fill="#ded9cf" stroke="none"/><rect x="335" y="385" width="855" height="150" rx="1" fill="#fffdf8" stroke="#a9a69a"/><rect x="343" y="393" width="839" height="134" rx="0" fill="#e7dfd4" stroke="#c3bcae"/><path d="M355.0,527.0 L370.0,527.0" fill="none" stroke="#7e908e" stroke-width="5" stroke-linejoin="round" stroke-linecap="round"/><path d="M385.0,527.0 L400.0,527.0" fill="none" stroke="#7e908e" stroke-width="5" stroke-linejoin="round" stroke-linecap="round"/><path d="M415.0,527.0 L430.0,527.0" fill="none" stroke="#7e908e" stroke-width="5" stroke-linejoin="round" stroke-linecap="round"/><path d="M445.0,527.0 L460.0,527.0" fill="none" stroke="#7e908e" stroke-width="5" stroke-linejoin="round" stroke-linecap="round"/><path d="M475.0,527.0 L490.0,527.0" fill="none" stroke="#7e908e" stroke-width="5" stroke-linejoin="round" stroke-linecap="round"/><path d="M505.0,527.0 L520.0,527.0" fill="none" stroke="#7e908e" stroke-width="5" stroke-linejoin="round" stroke-linecap="round"/><path d="M535.0,527.0 L550.0,527.0" fill="none" stroke="#7e908e" stroke-width="5" stroke-linejoin="round" stroke-linecap="round"/><path d="M565.0,527.0 L580.0,527.0" fill="none" stroke="#7e908e" stroke-width="5" stroke-linejoin="round" stroke-linecap="round"/><path d="M595.0,527.0 L610.0,527.0" fill="none" stroke="#7e908e" stroke-width="5" stroke-linejoin="round" stroke-linecap="round"/><path d="M625.0,527.0 L640.0,527.0" fill="none" stroke="#7e908e" stroke-width="5" stroke-linejoin="round" stroke-linecap="round"/><path d="M655.0,527.0 L670.0,527.0" fill="none" stroke="#7e908e" stroke-width="5" stroke-linejoin="round" stroke-linecap="round"/><path d="M685.0,527.0 L700.0,527.0" fill="none" stroke="#7e908e" stroke-width="5" stroke-linejoin="round" stroke-linecap="round"/><path d="M715.0,527.0 L730.0,527.0" fill="none" stroke="#7e908e" stroke-width="5" stroke-linejoin="round" stroke-linecap="round"/><path d="M745.0,527.0 L760.0,527.0" fill="none" stroke="#7e908e" stroke-width="5" stroke-linejoin="round" stroke-linecap="round"/><path d="M775.0,527.0 L790.0,527.0" fill="none" stroke="#7e908e" stroke-width="5" stroke-linejoin="round" stroke-linecap="round"/><path d="M805.0,527.0 L820.0,527.0" fill="none" stroke="#7e908e" stroke-width="5" stroke-linejoin="round" stroke-linecap="round"/><path d="M835.0,527.0 L850.0,527.0" fill="none" stroke="#7e908e" stroke-width="5" stroke-linejoin="round" stroke-linecap="round"/><path d="M865.0,527.0 L880.0,527.0" fill="none" stroke="#7e908e" stroke-width="5" stroke-linejoin="round" stroke-linecap="round"/><path d="M895.0,527.0 L910.0,527.0" fill="none" stroke="#7e908e" stroke-width="5" stroke-linejoin="round" stroke-linecap="round"/><path d="M925.0,527.0 L940.0,527.0" fill="none" stroke="#7e908e" stroke-width="5" stroke-linejoin="round" stroke-linecap="round"/><path d="M955.0,527.0 L970.0,527.0" fill="none" stroke="#7e908e" stroke-width="5" stroke-linejoin="round" stroke-linecap="round"/><path d="M985.0,527.0 L1000.0,527.0" fill="none" stroke="#7e908e" stroke-width="5" stroke-linejoin="round" stroke-linecap="round"/><path d="M1015.0,527.0 L1030.0,527.0" fill="none" stroke="#7e908e" stroke-width="5" stroke-linejoin="round" stroke-linecap="round"/><path d="M1045.0,527.0 L1060.0,527.0" fill="none" stroke="#7e908e" stroke-width="5" stroke-linejoin="round" stroke-linecap="round"/><path d="M1075.0,527.0 L1090.0,527.0" fill="none" stroke="#7e908e" stroke-width="5" stroke-linejoin="round" stroke-linecap="round"/><path d="M1105.0,527.0 L1120.0,527.0" fill="none" stroke="#7e908e" stroke-width="5" stroke-linejoin="round" stroke-linecap="round"/><path d="M1135.0,527.0 L1150.0,527.0" fill="none" stroke="#7e908e" stroke-width="5" stroke-linejoin="round" stroke-linecap="round"/><path d="M1165.0,527.0 L1180.0,527.0" fill="none" stroke="#7e908e" stroke-width="5" stroke-linejoin="round" stroke-linecap="round"/><rect x="1367" y="599" width="230" height="345" rx="1" fill="#ded9cf" stroke="none"/><rect x="1360" y="590" width="230" height="345" rx="1" fill="#fffdf8" stroke="#a9a69a"/><rect x="1368" y="598" width="214" height="329" rx="0" fill="#dbe1df" stroke="#c3bcae"/><path d="M1380.0,927.0 L1395.0,927.0" fill="none" stroke="#7e908e" stroke-width="5" stroke-linejoin="round" stroke-linecap="round"/><path d="M1410.0,927.0 L1425.0,927.0" fill="none" stroke="#7e908e" stroke-width="5" stroke-linejoin="round" stroke-linecap="round"/><path d="M1440.0,927.0 L1455.0,927.0" fill="none" stroke="#7e908e" stroke-width="5" stroke-linejoin="round" stroke-linecap="round"/><path d="M1470.0,927.0 L1485.0,927.0" fill="none" stroke="#7e908e" stroke-width="5" stroke-linejoin="round" stroke-linecap="round"/><path d="M1500.0,927.0 L1515.0,927.0" fill="none" stroke="#7e908e" stroke-width="5" stroke-linejoin="round" stroke-linecap="round"/><path d="M1530.0,927.0 L1545.0,927.0" fill="none" stroke="#7e908e" stroke-width="5" stroke-linejoin="round" stroke-linecap="round"/><path d="M1560.0,927.0 L1575.0,927.0" fill="none" stroke="#7e908e" stroke-width="5" stroke-linejoin="round" stroke-linecap="round"/><rect x="302" y="1139" width="360" height="140" rx="1" fill="#ded9cf" stroke="none"/><rect x="295" y="1130" width="360" height="140" rx="1" fill="#fffdf8" stroke="#a9a69a"/><rect x="303" y="1138" width="344" height="124" rx="0" fill="#e7dfd4" stroke="#c3bcae"/><path d="M315.0,1262.0 L330.0,1262.0" fill="none" stroke="#7e908e" stroke-width="5" stroke-linejoin="round" stroke-linecap="round"/><path d="M345.0,1262.0 L360.0,1262.0" fill="none" stroke="#7e908e" stroke-width="5" stroke-linejoin="round" stroke-linecap="round"/><path d="M375.0,1262.0 L390.0,1262.0" fill="none" stroke="#7e908e" stroke-width="5" stroke-linejoin="round" stroke-linecap="round"/><path d="M405.0,1262.0 L420.0,1262.0" fill="none" stroke="#7e908e" stroke-width="5" stroke-linejoin="round" stroke-linecap="round"/><path d="M435.0,1262.0 L450.0,1262.0" fill="none" stroke="#7e908e" stroke-width="5" stroke-linejoin="round" stroke-linecap="round"/><path d="M465.0,1262.0 L480.0,1262.0" fill="none" stroke="#7e908e" stroke-width="5" stroke-linejoin="round" stroke-linecap="round"/><path d="M495.0,1262.0 L510.0,1262.0" fill="none" stroke="#7e908e" stroke-width="5" stroke-linejoin="round" stroke-linecap="round"/><path d="M525.0,1262.0 L540.0,1262.0" fill="none" stroke="#7e908e" stroke-width="5" stroke-linejoin="round" stroke-linecap="round"/><path d="M555.0,1262.0 L570.0,1262.0" fill="none" stroke="#7e908e" stroke-width="5" stroke-linejoin="round" stroke-linecap="round"/><path d="M585.0,1262.0 L600.0,1262.0" fill="none" stroke="#7e908e" stroke-width="5" stroke-linejoin="round" stroke-linecap="round"/><path d="M615.0,1262.0 L630.0,1262.0" fill="none" stroke="#7e908e" stroke-width="5" stroke-linejoin="round" stroke-linecap="round"/><rect x="480" y="640" width="660" height="340" rx="2" fill="#ede2cd" stroke="#b5a58d"/><path d="M500.0,675.0 L1120.0,675.0" fill="none" stroke="#ded2bb" stroke-width="1" stroke-linejoin="round" stroke-linecap="round"/><path d="M500.0,735.0 L1120.0,735.0" fill="none" stroke="#ded2bb" stroke-width="1" stroke-linejoin="round" stroke-linecap="round"/><path d="M500.0,795.0 L1120.0,795.0" fill="none" stroke="#ded2bb" stroke-width="1" stroke-linejoin="round" stroke-linecap="round"/><path d="M500.0,855.0 L1120.0,855.0" fill="none" stroke="#ded2bb" stroke-width="1" stroke-linejoin="round" stroke-linecap="round"/><path d="M500.0,915.0 L1120.0,915.0" fill="none" stroke="#ded2bb" stroke-width="1" stroke-linejoin="round" stroke-linecap="round"/><rect x="458" y="618" width="704" height="384" rx="0" fill="none" stroke="#7b918b"/><circle cx="465.0" cy="618.0" r="2" fill="#7b918b" stroke="none" stroke-width="2"/><circle cx="465.0" cy="1002.0" r="2" fill="#7b918b" stroke="none" stroke-width="2"/><circle cx="503.0" cy="618.0" r="2" fill="#7b918b" stroke="none" stroke-width="2"/><circle cx="503.0" cy="1002.0" r="2" fill="#7b918b" stroke="none" stroke-width="2"/><circle cx="541.0" cy="618.0" r="2" fill="#7b918b" stroke="none" stroke-width="2"/><circle cx="541.0" cy="1002.0" r="2" fill="#7b918b" stroke="none" stroke-width="2"/><circle cx="579.0" cy="618.0" r="2" fill="#7b918b" stroke="none" stroke-width="2"/><circle cx="579.0" cy="1002.0" r="2" fill="#7b918b" stroke="none" stroke-width="2"/><circle cx="617.0" cy="618.0" r="2" fill="#7b918b" stroke="none" stroke-width="2"/><circle cx="617.0" cy="1002.0" r="2" fill="#7b918b" stroke="none" stroke-width="2"/><circle cx="655.0" cy="618.0" r="2" fill="#7b918b" stroke="none" stroke-width="2"/><circle cx="655.0" cy="1002.0" r="2" fill="#7b918b" stroke="none" stroke-width="2"/><circle cx="693.0" cy="618.0" r="2" fill="#7b918b" stroke="none" stroke-width="2"/><circle cx="693.0" cy="1002.0" r="2" fill="#7b918b" stroke="none" stroke-width="2"/><circle cx="731.0" cy="618.0" r="2" fill="#7b918b" stroke="none" stroke-width="2"/><circle cx="731.0" cy="1002.0" r="2" fill="#7b918b" stroke="none" stroke-width="2"/><circle cx="769.0" cy="618.0" r="2" fill="#7b918b" stroke="none" stroke-width="2"/><circle cx="769.0" cy="1002.0" r="2" fill="#7b918b" stroke="none" stroke-width="2"/><circle cx="807.0" cy="618.0" r="2" fill="#7b918b" stroke="none" stroke-width="2"/><circle cx="807.0" cy="1002.0" r="2" fill="#7b918b" stroke="none" stroke-width="2"/><circle cx="845.0" cy="618.0" r="2" fill="#7b918b" stroke="none" stroke-width="2"/><circle cx="845.0" cy="1002.0" r="2" fill="#7b918b" stroke="none" stroke-width="2"/><circle cx="883.0" cy="618.0" r="2" fill="#7b918b" stroke="none" stroke-width="2"/><circle cx="883.0" cy="1002.0" r="2" fill="#7b918b" stroke="none" stroke-width="2"/><circle cx="921.0" cy="618.0" r="2" fill="#7b918b" stroke="none" stroke-width="2"/><circle cx="921.0" cy="1002.0" r="2" fill="#7b918b" stroke="none" stroke-width="2"/><circle cx="959.0" cy="618.0" r="2" fill="#7b918b" stroke="none" stroke-width="2"/><circle cx="959.0" cy="1002.0" r="2" fill="#7b918b" stroke="none" stroke-width="2"/><circle cx="997.0" cy="618.0" r="2" fill="#7b918b" stroke="none" stroke-width="2"/><circle cx="997.0" cy="1002.0" r="2" fill="#7b918b" stroke="none" stroke-width="2"/><circle cx="1035.0" cy="618.0" r="2" fill="#7b918b" stroke="none" stroke-width="2"/><circle cx="1035.0" cy="1002.0" r="2" fill="#7b918b" stroke="none" stroke-width="2"/><circle cx="1073.0" cy="618.0" r="2" fill="#7b918b" stroke="none" stroke-width="2"/><circle cx="1073.0" cy="1002.0" r="2" fill="#7b918b" stroke="none" stroke-width="2"/><circle cx="1111.0" cy="618.0" r="2" fill="#7b918b" stroke="none" stroke-width="2"/><circle cx="1111.0" cy="1002.0" r="2" fill="#7b918b" stroke="none" stroke-width="2"/><circle cx="1149.0" cy="618.0" r="2" fill="#7b918b" stroke="none" stroke-width="2"/><circle cx="1149.0" cy="1002.0" r="2" fill="#7b918b" stroke="none" stroke-width="2"/><path d="M230.0,1275.0 L230.0,568.0 L1250.0,568.0 L1250.0,1080.0 L690.0,1080.0" fill="none" stroke="#177a70" stroke-width="9" stroke-linejoin="round" stroke-linecap="round"/><path d="M230.0,1420.0 L230.0,1280.0" fill="none" stroke="#177a70" stroke-width="9" stroke-linejoin="round" stroke-linecap="round"/><path d="M230.0,1280.0 L240.0,1302.0 L220.0,1302.0 L230.0,1280.0" fill="#177a70" stroke="#177a70" stroke-width="1" stroke-linejoin="round" stroke-linecap="round"/><path d="M1660.0,1330.0 L1660.0,965.0 L1480.0,965.0" fill="none" stroke="#687772" stroke-width="9" stroke-linejoin="round" stroke-linecap="round"/><path d="M1660.0,1330.0 L1660.0,1120.0" fill="none" stroke="#687772" stroke-width="7" stroke-linejoin="round" stroke-linecap="round"/><path d="M1660.0,1120.0 L1670.0,1142.0 L1650.0,1142.0 L1660.0,1120.0" fill="#687772" stroke="#687772" stroke-width="1" stroke-linejoin="round" stroke-linecap="round"/><path d="M560.0,855.0 L720.0,730.0 L850.0,875.0 L1040.0,740.0" fill="none" stroke="#bd783b" stroke-width="5" stroke-linejoin="round" stroke-linecap="round" stroke-dasharray="12 10"/><rect x="543" y="843" width="34" height="24" rx="4" fill="#faf8f0" stroke="#bd783b"/><circle cx="551.0" cy="868.0" r="4" fill="#687772" stroke="none" stroke-width="2"/><circle cx="569.0" cy="868.0" r="4" fill="#687772" stroke="none" stroke-width="2"/><rect x="833" y="863" width="34" height="24" rx="4" fill="#faf8f0" stroke="#bd783b"/><circle cx="841.0" cy="888.0" r="4" fill="#687772" stroke="none" stroke-width="2"/><circle cx="859.0" cy="888.0" r="4" fill="#687772" stroke="none" stroke-width="2"/><circle cx="415.0" cy="1058.0" r="26" fill="#d0d7c5" stroke="none" stroke-width="2"/><circle cx="410.0" cy="1050.0" r="24" fill="#bdcbb0" stroke="#98ae92" stroke-width="1"/><path d="M410.0,1042.0 L410.0,1058.0" fill="none" stroke="#8ca185" stroke-width="1" stroke-linejoin="round" stroke-linecap="round"/><circle cx="480.0" cy="1076.0" r="26" fill="#d0d7c5" stroke="none" stroke-width="2"/><circle cx="475.0" cy="1068.0" r="24" fill="#bdcbb0" stroke="#98ae92" stroke-width="1"/><path d="M475.0,1060.0 L475.0,1076.0" fill="none" stroke="#8ca185" stroke-width="1" stroke-linejoin="round" stroke-linecap="round"/><circle cx="545.0" cy="1058.0" r="26" fill="#d0d7c5" stroke="none" stroke-width="2"/><circle cx="540.0" cy="1050.0" r="24" fill="#bdcbb0" stroke="#98ae92" stroke-width="1"/><path d="M540.0,1042.0 L540.0,1058.0" fill="none" stroke="#8ca185" stroke-width="1" stroke-linejoin="round" stroke-linecap="round"/><circle cx="610.0" cy="1076.0" r="26" fill="#d0d7c5" stroke="none" stroke-width="2"/><circle cx="605.0" cy="1068.0" r="24" fill="#bdcbb0" stroke="#98ae92" stroke-width="1"/><path d="M605.0,1060.0 L605.0,1076.0" fill="none" stroke="#8ca185" stroke-width="1" stroke-linejoin="round" stroke-linecap="round"/><circle cx="565.0" cy="588.0" r="26" fill="#d0d7c5" stroke="none" stroke-width="2"/><circle cx="560.0" cy="580.0" r="24" fill="#bdcbb0" stroke="#98ae92" stroke-width="1"/><path d="M560.0,572.0 L560.0,588.0" fill="none" stroke="#8ca185" stroke-width="1" stroke-linejoin="round" stroke-linecap="round"/><circle cx="630.0" cy="606.0" r="26" fill="#d0d7c5" stroke="none" stroke-width="2"/><circle cx="625.0" cy="598.0" r="24" fill="#bdcbb0" stroke="#98ae92" stroke-width="1"/><path d="M625.0,590.0 L625.0,606.0" fill="none" stroke="#8ca185" stroke-width="1" stroke-linejoin="round" stroke-linecap="round"/><circle cx="695.0" cy="588.0" r="26" fill="#d0d7c5" stroke="none" stroke-width="2"/><circle cx="690.0" cy="580.0" r="24" fill="#bdcbb0" stroke="#98ae92" stroke-width="1"/><path d="M690.0,572.0 L690.0,588.0" fill="none" stroke="#8ca185" stroke-width="1" stroke-linejoin="round" stroke-linecap="round"/><circle cx="760.0" cy="606.0" r="26" fill="#d0d7c5" stroke="none" stroke-width="2"/><circle cx="755.0" cy="598.0" r="24" fill="#bdcbb0" stroke="#98ae92" stroke-width="1"/><path d="M755.0,590.0 L755.0,606.0" fill="none" stroke="#8ca185" stroke-width="1" stroke-linejoin="round" stroke-linecap="round"/><circle cx="825.0" cy="588.0" r="26" fill="#d0d7c5" stroke="none" stroke-width="2"/><circle cx="820.0" cy="580.0" r="24" fill="#bdcbb0" stroke="#98ae92" stroke-width="1"/><path d="M820.0,572.0 L820.0,588.0" fill="none" stroke="#8ca185" stroke-width="1" stroke-linejoin="round" stroke-linecap="round"/><circle cx="890.0" cy="606.0" r="26" fill="#d0d7c5" stroke="none" stroke-width="2"/><circle cx="885.0" cy="598.0" r="24" fill="#bdcbb0" stroke="#98ae92" stroke-width="1"/><path d="M885.0,590.0 L885.0,606.0" fill="none" stroke="#8ca185" stroke-width="1" stroke-linejoin="round" stroke-linecap="round"/><circle cx="365.0" cy="318.0" r="26" fill="#d0d7c5" stroke="none" stroke-width="2"/><circle cx="360.0" cy="310.0" r="24" fill="#bdcbb0" stroke="#98ae92" stroke-width="1"/><path d="M360.0,302.0 L360.0,318.0" fill="none" stroke="#8ca185" stroke-width="1" stroke-linejoin="round" stroke-linecap="round"/><circle cx="430.0" cy="336.0" r="26" fill="#d0d7c5" stroke="none" stroke-width="2"/><circle cx="425.0" cy="328.0" r="24" fill="#bdcbb0" stroke="#98ae92" stroke-width="1"/><path d="M425.0,320.0 L425.0,336.0" fill="none" stroke="#8ca185" stroke-width="1" stroke-linejoin="round" stroke-linecap="round"/><circle cx="495.0" cy="318.0" r="26" fill="#d0d7c5" stroke="none" stroke-width="2"/><circle cx="490.0" cy="310.0" r="24" fill="#bdcbb0" stroke="#98ae92" stroke-width="1"/><path d="M490.0,302.0 L490.0,318.0" fill="none" stroke="#8ca185" stroke-width="1" stroke-linejoin="round" stroke-linecap="round"/><circle cx="560.0" cy="336.0" r="26" fill="#d0d7c5" stroke="none" stroke-width="2"/><circle cx="555.0" cy="328.0" r="24" fill="#bdcbb0" stroke="#98ae92" stroke-width="1"/><path d="M555.0,320.0 L555.0,336.0" fill="none" stroke="#8ca185" stroke-width="1" stroke-linejoin="round" stroke-linecap="round"/><rect x="360" y="590" width="70" height="12" rx="2" fill="#b49067" stroke="none"/><rect x="920" y="1040" width="70" height="12" rx="2" fill="#b49067" stroke="none"/><rect x="1120" y="1080" width="70" height="12" rx="2" fill="#b49067" stroke="none"/><circle cx="270.0" cy="780.0" r="24" fill="#177a70" stroke="none" stroke-width="2"/><text x="270" y="789" fill="white" font-size="23" font-weight="600" text-anchor="middle">01</text><circle cx="1040.0" cy="820.0" r="24" fill="#bd783b" stroke="none" stroke-width="2"/><text x="1040" y="829" fill="white" font-size="23" font-weight="600" text-anchor="middle">02</text><circle cx="1460.0" cy="735.0" r="24" fill="#687772" stroke="none" stroke-width="2"/><text x="1460" y="744" fill="white" font-size="23" font-weight="600" text-anchor="middle">03</text><text x="415" y="475" fill="#18302f" font-size="29" font-weight="400" text-anchor="start">研发与评审</text><text x="385" y="1217" fill="#18302f" font-size="27" font-weight="400" text-anchor="start">共议与结果公示</text><text x="540" y="965" fill="#bd783b" font-size="24" font-weight="400" text-anchor="start">测试围界</text><text x="175" y="1460" fill="#177a70" font-size="27" font-weight="400" text-anchor="start">公众入口</text><text x="1340" y="1460" fill="#687772" font-size="27" font-weight="400" text-anchor="start">独立设备入口</text><circle cx="1880.0" cy="325.0" r="24" fill="#177a70" stroke="none" stroke-width="2"/><text x="1880" y="334" fill="white" font-size="23" font-weight="600" text-anchor="middle">01</text><text x="1930" y="330.0" fill="#177a70" font-size="33" font-weight="400" text-anchor="start">在外观察</text><text x="1870" y="422.0" fill="#687772" font-size="27" font-weight="400" text-anchor="start">观察环绕过受控区，途经共议与结果公示。</text><circle cx="1880.0" cy="630.0" r="24" fill="#bd783b" stroke="none" stroke-width="2"/><text x="1880" y="639" fill="white" font-size="23" font-weight="600" text-anchor="middle">02</text><text x="1930" y="635.0" fill="#bd783b" font-size="33" font-weight="400" text-anchor="start">在内验证</text><text x="1870" y="727.0" fill="#687772" font-size="27" font-weight="400" text-anchor="start">测试轨迹和准入围界清楚；停机由负责人控制。</text><circle cx="1880.0" cy="935.0" r="24" fill="#687772" stroke="none" stroke-width="2"/><text x="1880" y="944" fill="white" font-size="23" font-weight="600" text-anchor="middle">03</text><text x="1930" y="940.0" fill="#687772" font-size="33" font-weight="400" text-anchor="start">后场独立</text><text x="1870" y="1032.0" fill="#687772" font-size="27" font-weight="400" text-anchor="start">设备、物料与维护从后场进入，避免与公众混行。</text><path d="M85.0,1560.0 L2515.0,1560.0" fill="none" stroke="#d9d5ca" stroke-width="2" stroke-linejoin="round" stroke-linecap="round"/><text x="85" y="1607" fill="#687772" font-size="22" font-weight="400" text-anchor="start">空间策略示意 / 无比例；精确路径、权限与工程条件另行核验</text><text x="2515" y="1607" fill="#687772" font-size="22" font-weight="400" text-anchor="end">V1.3 / 2026-10-06</text></svg>